<svg width="32" height="32" viewBox="0 0 32 32" fill="none" xmlns="http://www.w3.org/2000/svg">
<path fill-rule="evenodd" clip-rule="evenodd" d="M4.00006 15C4.00006 8.37258 9.37264 3 16.0001 3C22.6275 3 28.0001 8.37258 28.0001 15C28.0001 21.6274 22.6275 27 16.0001 27C14.1936 27 12.4435 26.5997 10.8511 25.8421L10.4841 25.659L5.2426 26.9701C4.54687 27.1441 3.91337 26.5541 4.00869 25.8668L4.0299 25.7575L5.33906 20.514C4.52666 18.9455 4.06845 17.2127 4.00714 15.4158L4.00006 15ZM26.0001 15C26.0001 9.47715 21.5229 5 16.0001 5C10.4772 5 6.00006 9.47715 6.00006 15C6.00006 16.7386 6.44345 18.4105 7.27595 19.8917C7.40107 20.1144 7.43628 20.3764 7.37436 20.6242L6.37406 24.625L10.3752 23.6254C10.5817 23.5737 10.7981 23.5896 10.9934 23.6687L11.1077 23.7238C12.5891 24.5565 14.2612 25 16.0001 25C21.5229 25 26.0001 20.5228 26.0001 15Z" fill="white"/>
<path d="M11 18C10.4477 18 10 17.5523 10 17C10 16.4872 10.386 16.0645 10.8834 16.0067L11 16H17C17.5523 16 18 16.4477 18 17C18 17.5128 17.614 17.9355 17.1166 17.9933L17 18H11Z" fill="white"/>
<path d="M11 14C10.4477 14 10 13.5523 10 13C10 12.4872 10.386 12.0645 10.8834 12.0067L11 12L21 12C21.5523 12 22 12.4477 22 13C22 13.5128 21.614 13.9355 21.1166 13.9933L21 14H11Z" fill="white"/>
</svg>
