<svg width="32" height="32" viewBox="0 0 32 32" fill="none" xmlns="http://www.w3.org/2000/svg">
<path fill-rule="evenodd" clip-rule="evenodd" d="M16.0743 6.42622C17.564 5.05656 19.8008 4.09727 21.7329 4.00673L21.9945 3.99981C26.9013 3.97301 30 7.01097 30 13C30 16.8303 26.6496 21.2245 20.009 26.3212L19.1963 26.9362C18.6441 27.3484 18.0707 27.7652 17.4764 28.1866L16.5691 28.8221C16.2267 29.0592 15.7731 29.0592 15.4307 28.8221L14.5234 28.1866C13.9291 27.7652 13.3558 27.3484 12.8035 26.9362L11.9908 26.3212C5.35039 21.2245 2 16.8303 2 13C2 7.01989 5.08271 4.00502 9.99906 3.9998C11.9699 3.99794 14.3588 4.98836 15.923 6.42424L15.999 6.49695L16.0743 6.42622ZM28 13C28 8.12629 25.8098 5.979 22.0055 5.99978L21.778 6.00695C20.0119 6.10686 17.7815 7.22794 16.8135 8.58161C16.4147 9.13937 15.5856 9.13941 15.1867 8.58168C14.1761 7.16865 11.7696 5.99813 10.0011 5.99979C6.17828 6.00386 4 8.1342 4 13C4 15.1216 5.47953 17.6848 8.45859 20.6438L8.99988 21.17C9.1855 21.3468 9.37631 21.525 9.57232 21.7045L10.1759 22.247C10.7952 22.7936 11.4612 23.3522 12.1741 23.9227L12.9027 24.497C13.1508 24.6898 13.4041 24.8839 13.6626 25.0792L14.4538 25.6692C14.8573 25.9661 15.2725 26.2659 15.6995 26.5686L16 26.78L16.3003 26.5686L17.1386 25.9671L17.9455 25.3733C18.473 24.9799 18.9796 24.5918 19.4653 24.2089L20.1783 23.6384C20.2945 23.544 20.4094 23.4499 20.5231 23.3561L21.1891 22.7976C21.8396 22.243 22.4432 21.7004 23 21.17L23.5413 20.6438C26.4328 17.7718 27.9117 15.2727 27.9962 13.1883L28 13Z" fill="white"/>
</svg>
